<?xml version="1.0" encoding="UTF-8" standalone="no"?>
<!-- Created with Inkscape (http://www.inkscape.org/) -->

<svg
   xmlns:dc="http://purl.org/dc/elements/1.1/"
   xmlns:cc="http://creativecommons.org/ns#"
   xmlns:rdf="http://www.w3.org/1999/02/22-rdf-syntax-ns#"
   xmlns:svg="http://www.w3.org/2000/svg"
   xmlns="http://www.w3.org/2000/svg"
   xmlns:sodipodi="http://sodipodi.sourceforge.net/DTD/sodipodi-0.dtd"
   xmlns:inkscape="http://www.inkscape.org/namespaces/inkscape"
   id="svg3436"
   version="1.1"
   inkscape:version="0.48.2 r9819"
   width="46.45"
   height="31.875"
   xml:space="preserve"
   sodipodi:docname="voice router.eps"><metadata
     id="metadata3442"><rdf:RDF><cc:Work
         rdf:about=""><dc:format>image/svg+xml</dc:format><dc:type
           rdf:resource="http://purl.org/dc/dcmitype/StillImage" /><dc:title></dc:title></cc:Work></rdf:RDF></metadata><defs
     id="defs3440"><clipPath
       clipPathUnits="userSpaceOnUse"
       id="clipPath3452"><path
         d="m 0,254.973 370,0 0,-250.00034 -370,0 0,250.00034"
         id="path3454" /></clipPath></defs><sodipodi:namedview
     pagecolor="#ffffff"
     bordercolor="#666666"
     borderopacity="1"
     objecttolerance="10"
     gridtolerance="10"
     guidetolerance="10"
     inkscape:pageopacity="0"
     inkscape:pageshadow="2"
     inkscape:window-width="640"
     inkscape:window-height="480"
     id="namedview3438"
     showgrid="false"
     inkscape:zoom="7.4039216"
     inkscape:cx="23.225"
     inkscape:cy="15.9375"
     inkscape:window-x="0"
     inkscape:window-y="0"
     inkscape:window-maximized="0"
     inkscape:current-layer="g3444" /><g
     id="g3444"
     inkscape:groupmode="layer"
     inkscape:label="ink_ext_XXXXXX"
     transform="matrix(1.25,0,0,-1.25,0,31.875)"><g
       id="g3446"
       transform="scale(0.1,0.1)"><g
         id="g3448"><g
           id="g3450"
           clip-path="url(#clipPath3452)"><path
             d="m 369.855,181.457 c 0,-39.504 -82.343,-71.523 -183.925,-71.523 C 84.3477,109.934 2,141.953 2,181.457 L 2,76.6914 C 2,37.1875 84.3477,5.15625 185.93,5.15625 c 101.582,0 183.925,32.03125 183.925,71.53515 l 0,104.7656"
             style="fill:#026c9b;fill-opacity:1;fill-rule:nonzero;stroke:none"
             id="path3456" /><path
             d="m 369.855,181.457 c 0,-39.504 -82.343,-71.523 -183.925,-71.523 C 84.3477,109.934 2,141.953 2,181.457 L 2,76.6914 C 2,37.1875 84.3477,5.15625 185.93,5.15625 c 101.582,0 183.925,32.03125 183.925,71.53515 l 0,104.7656 z"
             style="fill:none;stroke:#ffffff;stroke-opacity:1;stroke-width:4;stroke-linecap:butt;stroke-linejoin:miter;stroke-miterlimit:4;stroke-dasharray:none"
             id="path3458" /><path
             d="m 185.93,109.934 c 101.582,0 183.925,32.019 183.925,71.523 0,39.5 -82.343,71.523 -183.925,71.523 C 84.3477,252.98 2,220.957 2,181.457 2,141.953 84.3477,109.934 185.93,109.934"
             style="fill:#026c9b;fill-opacity:1;fill-rule:nonzero;stroke:none"
             id="path3460" /><path
             d="m 185.93,109.934 c 101.582,0 183.925,32.019 183.925,71.523 0,39.5 -82.343,71.523 -183.925,71.523 C 84.3477,252.98 2,220.957 2,181.457 2,141.953 84.3477,109.934 185.93,109.934 z"
             style="fill:none;stroke:#ffffff;stroke-opacity:1;stroke-width:4;stroke-linecap:butt;stroke-linejoin:miter;stroke-miterlimit:4;stroke-dasharray:none"
             id="path3462" /><path
             d="m 143.926,209.426 15.183,-22.785 -57.421,-13.27 12.55,10.449 -88.7497,15.164 22.2656,16.692 85.6371,-14.504 10.535,8.254"
             style="fill:#ffffff;fill-opacity:1;fill-rule:nonzero;stroke:none"
             id="path3464" /><path
             d="m 224.727,154.18 -10.364,23.476 51.797,10.364 -8.98,-8.059 86.328,-14.734 -20.715,-16.575 -85.813,16.114 -12.253,-10.586"
             style="fill:#ffffff;fill-opacity:1;fill-rule:nonzero;stroke:none"
             id="path3466" /><path
             d="m 196.406,221.855 58.02,15.891 0.679,-24.863 -14.5,2.762 -28.308,-23.485 -27.024,3.934 29.231,22.98 -18.098,2.781"
             style="fill:#ffffff;fill-opacity:1;fill-rule:nonzero;stroke:none"
             id="path3468" /><path
             d="m 171.543,132.766 -55.242,-10.356 -2.071,25.551 15.875,-3.449 30.415,25.968 26.914,-4.562 -32.461,-28.309 16.57,-4.843"
             style="fill:#ffffff;fill-opacity:1;fill-rule:nonzero;stroke:none"
             id="path3470" /><path
             d="m 145.195,17.0508 84.0039,0 0,84.0039 -84.0039,0 0,-84.0039 z"
             style="fill:#000000;fill-opacity:1;fill-rule:nonzero;stroke:none"
             id="path3472" /><path
             d="m 145.195,17.0508 84.0039,0 0,84.0039 -84.0039,0 0,-84.0039 z"
             style="fill:none;stroke:#ffffff;stroke-opacity:1;stroke-width:4;stroke-linecap:butt;stroke-linejoin:miter;stroke-miterlimit:4;stroke-dasharray:none"
             id="path3474" /><g
             id="g3476"
             transform="scale(10,10)"><text
               transform="matrix(1,0,0,-1,15.4641,2.28047)"
               id="text3478"><tspan
                 style="fill:#ffffff;fill-opacity:1;fill-rule:nonzero;stroke:none;font-family:Helvetica;font-variant:normal;font-weight:bold;font-size:10;writing-mode:lr;-inkscape-font-specification:Helvetica-Bold"
                 x="0"
                 y="0"
                 id="tspan3480">V</tspan></text>
</g></g></g></g></g></svg>