<?xml version="1.0" encoding="UTF-8" standalone="no"?>
<!-- Created with Inkscape (http://www.inkscape.org/) -->

<svg
   xmlns:dc="http://purl.org/dc/elements/1.1/"
   xmlns:cc="http://creativecommons.org/ns#"
   xmlns:rdf="http://www.w3.org/1999/02/22-rdf-syntax-ns#"
   xmlns:svg="http://www.w3.org/2000/svg"
   xmlns="http://www.w3.org/2000/svg"
   xmlns:sodipodi="http://sodipodi.sourceforge.net/DTD/sodipodi-0.dtd"
   xmlns:inkscape="http://www.inkscape.org/namespaces/inkscape"
   id="svg3127"
   version="1.1"
   inkscape:version="0.48.2 r9819"
   width="60.9875"
   height="29.9875"
   xml:space="preserve"
   sodipodi:docname="Nexus 5000.eps"><metadata
     id="metadata3133"><rdf:RDF><cc:Work
         rdf:about=""><dc:format>image/svg+xml</dc:format><dc:type
           rdf:resource="http://purl.org/dc/dcmitype/StillImage" /><dc:title></dc:title></cc:Work></rdf:RDF></metadata><defs
     id="defs3131"><clipPath
       clipPathUnits="userSpaceOnUse"
       id="clipPath3143"><path
         d="M 0,239.883 0,0 l 487.949,0 0,239.883 -487.949,0 z"
         id="path3145" /></clipPath></defs><sodipodi:namedview
     pagecolor="#ffffff"
     bordercolor="#666666"
     borderopacity="1"
     objecttolerance="10"
     gridtolerance="10"
     guidetolerance="10"
     inkscape:pageopacity="0"
     inkscape:pageshadow="2"
     inkscape:window-width="640"
     inkscape:window-height="480"
     id="namedview3129"
     showgrid="false"
     inkscape:zoom="6.0176266"
     inkscape:cx="30.49375"
     inkscape:cy="14.99375"
     inkscape:window-x="0"
     inkscape:window-y="0"
     inkscape:window-maximized="0"
     inkscape:current-layer="g3135" /><g
     id="g3135"
     inkscape:groupmode="layer"
     inkscape:label="ink_ext_XXXXXX"
     transform="matrix(1.25,0,0,-1.25,0,29.9875)"><g
       id="g3137"
       transform="scale(0.1,0.1)"><g
         id="g3139"><g
           id="g3141"
           clip-path="url(#clipPath3143)"><path
             d="m 5.65625,118.672 144.28475,116.66 333.094,0 -119.39,-116.66 -357.98875,0"
             style="fill:#087bbb;fill-opacity:1;fill-rule:nonzero;stroke:none"
             id="path3147" /><path
             d="m 5.65625,118.672 144.28475,116.66 333.094,0 -119.39,-116.66 -357.98875,0 z"
             style="fill:none;stroke:#ffffff;stroke-opacity:1;stroke-width:4;stroke-linecap:butt;stroke-linejoin:miter;stroke-miterlimit:4;stroke-dasharray:none"
             id="path3149" /><path
             d="m 332.898,173.691 8.879,8.887 27.754,-12.617 -48.652,-13.984 11.023,14.531 -88.648,0 3.184,3.183 86.46,0"
             style="fill:#231f20;fill-opacity:1;fill-rule:nonzero;stroke:none"
             id="path3151" /><path
             d="m 279.656,203.438 -3.179,-3.165 -90.403,0 -13.691,-10.644 -23.281,11.406 53.371,15.625 -13.215,-13.222 90.398,0"
             style="fill:#231f20;fill-opacity:1;fill-rule:nonzero;stroke:none"
             id="path3153" /><path
             d="m 229.785,153.145 -3.183,-3.184 -90.84,0 -13.692,-10.195 -24.152,11.386 54.68,15.196 -12.344,-13.203 89.531,0"
             style="fill:#231f20;fill-opacity:1;fill-rule:nonzero;stroke:none"
             id="path3155" /><path
             d="m 384.094,215.703 8.875,8.867 27.746,-12.168 -48.653,-13.984 10.594,14.102 -89.094,0 3.184,3.183 87.348,0"
             style="fill:#231f20;fill-opacity:1;fill-rule:nonzero;stroke:none"
             id="path3157" /><path
             d="m 333.34,170.645 8.879,8.867 24.246,-10.41 -48.653,-13.985 12.344,12.344 -89.094,0 3.184,3.184 89.094,0"
             style="fill:#ffffff;fill-opacity:1;fill-rule:nonzero;stroke:none"
             id="path3159" /><path
             d="m 276.594,200.391 -3.176,-3.184 -89.094,0 -8.886,-8.887 -24.149,10.528 48.555,13.886 -12.344,-12.343 89.094,0"
             style="fill:#ffffff;fill-opacity:1;fill-rule:nonzero;stroke:none"
             id="path3161" /><path
             d="m 363.645,4.85547 119.39,120.30853 0,109.973 -119.39,-116.465 0,-113.81653"
             style="fill:#087bbb;fill-opacity:1;fill-rule:nonzero;stroke:none"
             id="path3163" /><path
             d="m 363.645,4.85547 119.39,120.30853 0,109.973 -119.39,-116.465 0,-113.81653 z"
             style="fill:none;stroke:#ffffff;stroke-opacity:1;stroke-width:4;stroke-linecap:butt;stroke-linejoin:miter;stroke-miterlimit:4;stroke-dasharray:none"
             id="path3165" /><path
             d="m 226.277,150.078 -3.172,-3.183 -89.089,0 -8.887,-8.887 -24.152,10.527 48.554,13.887 -12.343,-12.344 89.089,0"
             style="fill:#ffffff;fill-opacity:1;fill-rule:nonzero;stroke:none"
             id="path3167" /><path
             d="m 384.094,212.637 8.875,8.886 24.25,-10.429 -48.657,-13.985 12.344,12.344 -89.09,0 3.184,3.184 89.094,0"
             style="fill:#ffffff;fill-opacity:1;fill-rule:nonzero;stroke:none"
             id="path3169" /><path
             d="M 378.328,208.926 367.395,197.988"
             style="fill:none;stroke:#231f20;stroke-opacity:1;stroke-width:2.8;stroke-linecap:round;stroke-linejoin:round;stroke-miterlimit:4;stroke-dasharray:none"
             id="path3171" /><path
             d="M 327.141,166.484 316.199,155.547"
             style="fill:none;stroke:#231f20;stroke-opacity:1;stroke-width:2.8;stroke-linecap:round;stroke-linejoin:round;stroke-miterlimit:4;stroke-dasharray:none"
             id="path3173" /><path
             d="m 245.762,172.168 -5.242,-4.375"
             style="fill:none;stroke:#231f20;stroke-opacity:1;stroke-width:2.8;stroke-linecap:round;stroke-linejoin:round;stroke-miterlimit:4;stroke-dasharray:none"
             id="path3175" /><path
             d="m 296.953,214.609 -4.812,-4.375"
             style="fill:none;stroke:#231f20;stroke-opacity:1;stroke-width:2.8;stroke-linecap:round;stroke-linejoin:round;stroke-miterlimit:4;stroke-dasharray:none"
             id="path3177" /><path
             d="m 363.645,3.32031 0,115.35169 -357.50047,0 0,-116.07434 357.50047,0.72265"
             style="fill:#087bbb;fill-opacity:1;fill-rule:nonzero;stroke:none"
             id="path3179" /><path
             d="m 363.645,3.32031 0,115.35169 -357.50047,0 0,-116.07434 357.50047,0.72265 z"
             style="fill:none;stroke:#ffffff;stroke-opacity:1;stroke-width:4;stroke-linecap:butt;stroke-linejoin:miter;stroke-miterlimit:4;stroke-dasharray:none"
             id="path3181" /><path
             d="m 138.32,59.8047 -66.8278,0 0,6.1133 -25.211,-9.0039 25.211,-9.0235 0,6.1133 66.8278,0 0,5.8008"
             style="fill:#ffffff;fill-opacity:1;fill-rule:nonzero;stroke:none"
             id="path3183" /><path
             d="m 176.105,40.6133 0,-23.6797 -17.265,0 25.437,-8.94532 25.45,8.94532 -17.247,0 0,23.6797 -16.375,0"
             style="fill:#ffffff;fill-opacity:1;fill-rule:nonzero;stroke:none"
             id="path3185" /><path
             d="m 176.105,72.5195 0,23.6797 -17.265,0 25.437,8.9488 25.45,-8.9488 -17.247,0 0,-23.6797 -16.375,0"
             style="fill:#ffffff;fill-opacity:1;fill-rule:nonzero;stroke:none"
             id="path3187" /><path
             d="m 230.254,54.0039 66.824,0 0,-6.1133 25.227,9.0235 -25.227,9.0039 0,-6.1133 -66.824,0 0,-5.8008"
             style="fill:#ffffff;fill-opacity:1;fill-rule:nonzero;stroke:none"
             id="path3189" /><path
             d="M 291.797,18.8672 C 279.258,14.1797 221.621,27.0898 163.113,47.6953 104.59,68.3008 67.3359,88.8281 79.8828,93.5156 92.4219,98.2031 150.059,85.3125 208.574,64.6875 267.09,44.082 304.336,23.5742 291.797,18.8672 z"
             style="fill:none;stroke:#ffffff;stroke-opacity:1;stroke-width:4;stroke-linecap:butt;stroke-linejoin:miter;stroke-miterlimit:4;stroke-dasharray:none"
             id="path3191" /><path
             d="M 288.469,93.8672 C 301.711,89.4141 265.293,68.9844 207.156,48.2539 149.004,27.5 91.1445,14.2969 77.9023,18.75 64.6562,23.2031 101.055,43.6133 159.211,64.3555 217.344,85.1172 275.203,98.3203 288.469,93.8672 z"
             style="fill:none;stroke:#ffffff;stroke-opacity:1;stroke-width:4;stroke-linecap:butt;stroke-linejoin:miter;stroke-miterlimit:4;stroke-dasharray:none"
             id="path3193" /><path
             d="m 211.688,43.1445 c 22.082,5.4766 27.433,16.25 11.984,24.0821 -15.457,7.8125 -45.86,9.7265 -67.942,4.2382 -22.07,-5.4687 -27.429,-16.25 -11.96,-24.0703 15.441,-7.832 45.847,-9.7304 67.918,-4.25"
             style="fill:#bfbebe;fill-opacity:1;fill-rule:nonzero;stroke:none"
             id="path3195" /></g></g></g></g></svg>