<?xml version="1.0" encoding="UTF-8" standalone="no"?>
<!-- Created with Inkscape (http://www.inkscape.org/) -->

<svg
   xmlns:dc="http://purl.org/dc/elements/1.1/"
   xmlns:cc="http://creativecommons.org/ns#"
   xmlns:rdf="http://www.w3.org/1999/02/22-rdf-syntax-ns#"
   xmlns:svg="http://www.w3.org/2000/svg"
   xmlns="http://www.w3.org/2000/svg"
   xmlns:sodipodi="http://sodipodi.sourceforge.net/DTD/sodipodi-0.dtd"
   xmlns:inkscape="http://www.inkscape.org/namespaces/inkscape"
   id="svg3254"
   version="1.1"
   inkscape:version="0.48.2 r9819"
   width="46.575"
   height="31.575"
   xml:space="preserve"
   sodipodi:docname="Service router.eps"><metadata
     id="metadata3260"><rdf:RDF><cc:Work
         rdf:about=""><dc:format>image/svg+xml</dc:format><dc:type
           rdf:resource="http://purl.org/dc/dcmitype/StillImage" /><dc:title></dc:title></cc:Work></rdf:RDF></metadata><defs
     id="defs3258"><clipPath
       clipPathUnits="userSpaceOnUse"
       id="clipPath3270"><path
         d="M 0,252.602 0,0 l 372.621,0 0,252.602 -372.621,0 z"
         id="path3272" /></clipPath></defs><sodipodi:namedview
     pagecolor="#ffffff"
     bordercolor="#666666"
     borderopacity="1"
     objecttolerance="10"
     gridtolerance="10"
     guidetolerance="10"
     inkscape:pageopacity="0"
     inkscape:pageshadow="2"
     inkscape:window-width="640"
     inkscape:window-height="480"
     id="namedview3256"
     showgrid="false"
     inkscape:zoom="7.4742674"
     inkscape:cx="23.2875"
     inkscape:cy="15.7875"
     inkscape:window-x="0"
     inkscape:window-y="0"
     inkscape:window-maximized="0"
     inkscape:current-layer="g3262" /><g
     id="g3262"
     inkscape:groupmode="layer"
     inkscape:label="ink_ext_XXXXXX"
     transform="matrix(1.25,0,0,-1.25,0,31.575)"><g
       id="g3264"
       transform="scale(0.1,0.1)"><g
         id="g3266"><g
           id="g3268"
           clip-path="url(#clipPath3270)"><path
             d="m 370.238,178.691 c 0,-39.511 -82.351,-71.543 -183.926,-71.543 -101.5815,0 -183.92528,32.032 -183.92528,71.543 l 0,-104.7848 c 0,-39.4921 82.34378,-71.52339 183.92528,-71.52339 101.575,0 183.926,32.03129 183.926,71.52339 l 0,104.7848"
             style="fill:#20a3e4;fill-opacity:1;fill-rule:evenodd;stroke:none"
             id="path3274" /><path
             d="m 186.312,107.148 c 101.575,0 183.926,32.032 183.926,71.543 0,39.512 -82.351,71.524 -183.926,71.524 -101.5815,0 -183.92528,-32.012 -183.92528,-71.524 0,-39.511 82.34378,-71.543 183.92528,-71.543"
             style="fill:#20a3e4;fill-opacity:1;fill-rule:evenodd;stroke:none"
             id="path3276" /><path
             d="m 370.238,178.691 c 0,-39.511 -82.351,-71.543 -183.926,-71.543 -101.5815,0 -183.92528,32.032 -183.92528,71.543 l 0,-104.7848 c 0,-39.4921 82.34378,-71.52339 183.92528,-71.52339 101.575,0 183.926,32.03129 183.926,71.52339 l 0,104.7848 z"
             style="fill:none;stroke:#afdff4;stroke-opacity:1;stroke-width:4.771;stroke-linecap:square;stroke-linejoin:bevel;stroke-miterlimit:10;stroke-dasharray:none"
             id="path3278" /><path
             d="m 186.312,107.148 c 101.575,0 183.926,32.032 183.926,71.543 0,39.512 -82.351,71.524 -183.926,71.524 -101.5815,0 -183.92528,-32.012 -183.92528,-71.524 0,-39.511 82.34378,-71.543 183.92528,-71.543 z"
             style="fill:none;stroke:#afdff4;stroke-opacity:1;stroke-width:4.771;stroke-linecap:square;stroke-linejoin:bevel;stroke-miterlimit:10;stroke-dasharray:none"
             id="path3280" /><path
             d="m 144.312,206.66 15.184,-22.773 -57.43,-13.282 12.559,10.45 -88.75,15.175 22.2656,16.68 85.6254,-14.512 10.546,8.262"
             style="fill:#ffffff;fill-opacity:1;fill-rule:nonzero;stroke:none"
             id="path3282" /><path
             d="m 225.113,151.406 -10.371,23.496 51.797,10.352 -8.977,-8.047 86.329,-14.746 -20.723,-16.582 -85.801,16.113 -12.254,-10.586"
             style="fill:#ffffff;fill-opacity:1;fill-rule:nonzero;stroke:none"
             id="path3284" /><path
             d="m 196.793,219.102 58.008,15.878 0.691,-24.863 -14.5,2.774 -28.32,-23.496 -27.012,3.945 29.219,22.969 -18.086,2.793"
             style="fill:#ffffff;fill-opacity:1;fill-rule:nonzero;stroke:none"
             id="path3286" /><path
             d="m 171.93,130 -55.254,-10.352 -2.071,25.547 15.887,-3.457 30.41,25.957 26.907,-4.55 L 155.355,134.824 171.93,130"
             style="fill:#ffffff;fill-opacity:1;fill-rule:nonzero;stroke:none"
             id="path3288" /><path
             d="m 104.496,92.8711 165.168,0 0,-72.5781 -165.168,0 0,72.5781"
             style="fill:#1c7ba7;fill-opacity:1;fill-rule:evenodd;stroke:none"
             id="path3290" /><path
             d="m 104.496,92.8711 165.168,0 0,-72.5781 -165.168,0 0,72.5781 z"
             style="fill:none;stroke:#8ed0f2;stroke-opacity:1;stroke-width:7.157;stroke-linecap:square;stroke-linejoin:miter;stroke-miterlimit:10;stroke-dasharray:none"
             id="path3292" /><path
             d="m 231.566,73.2891 22.461,0 0,-31.4024 -22.461,0 0,31.4024"
             style="fill:#ffffff;fill-opacity:1;fill-rule:evenodd;stroke:none"
             id="path3294" /><path
             d="m 231.566,73.2891 22.461,0 0,-31.4024 -22.461,0 0,31.4024 z"
             style="fill:none;stroke:#ffffff;stroke-opacity:1;stroke-width:2.386;stroke-linecap:square;stroke-linejoin:miter;stroke-miterlimit:10;stroke-dasharray:none"
             id="path3296" /><path
             d="m 254.027,87.9688 6.848,0 0,-5.8399 -6.848,0 0,5.8399"
             style="fill:#ffffff;fill-opacity:1;fill-rule:evenodd;stroke:none"
             id="path3298" /><path
             d="m 254.027,87.9688 6.848,0 0,-5.8399 -6.848,0 0,5.8399 z"
             style="fill:none;stroke:#ffffff;stroke-opacity:1;stroke-width:2.386;stroke-linecap:square;stroke-linejoin:miter;stroke-miterlimit:10;stroke-dasharray:none"
             id="path3300" /><path
             d="m 240.355,87.9688 6.836,0 0,-5.8399 -6.836,0 0,5.8399"
             style="fill:#ffffff;fill-opacity:1;fill-rule:evenodd;stroke:none"
             id="path3302" /><path
             d="m 240.355,87.9688 6.836,0 0,-5.8399 -6.836,0 0,5.8399 z"
             style="fill:none;stroke:#ffffff;stroke-opacity:1;stroke-width:2.386;stroke-linecap:square;stroke-linejoin:miter;stroke-miterlimit:10;stroke-dasharray:none"
             id="path3304" /><path
             d="m 226.676,87.9688 6.844,0 0,-5.8399 -6.844,0 0,5.8399"
             style="fill:#ffffff;fill-opacity:1;fill-rule:evenodd;stroke:none"
             id="path3306" /><path
             d="m 226.676,87.9688 6.844,0 0,-5.8399 -6.844,0 0,5.8399 z"
             style="fill:none;stroke:#ffffff;stroke-opacity:1;stroke-width:2.386;stroke-linecap:square;stroke-linejoin:miter;stroke-miterlimit:10;stroke-dasharray:none"
             id="path3308" /><path
             d="m 213.969,87.9688 5.871,0 0,-5.8399 -5.871,0 0,5.8399"
             style="fill:#ffffff;fill-opacity:1;fill-rule:evenodd;stroke:none"
             id="path3310" /><path
             d="m 213.969,87.9688 5.871,0 0,-5.8399 -5.871,0 0,5.8399 z"
             style="fill:none;stroke:#ffffff;stroke-opacity:1;stroke-width:2.386;stroke-linecap:square;stroke-linejoin:miter;stroke-miterlimit:10;stroke-dasharray:none"
             id="path3312" /><path
             d="m 200.289,87.9688 5.867,0 0,-5.8399 -5.867,0 0,5.8399"
             style="fill:#ffffff;fill-opacity:1;fill-rule:evenodd;stroke:none"
             id="path3314" /><path
             d="m 200.289,87.9688 5.867,0 0,-5.8399 -5.867,0 0,5.8399 z"
             style="fill:none;stroke:#ffffff;stroke-opacity:1;stroke-width:2.386;stroke-linecap:square;stroke-linejoin:miter;stroke-miterlimit:10;stroke-dasharray:none"
             id="path3316" /><path
             d="m 186.586,87.9688 6.855,0 0,-5.8399 -6.855,0 0,5.8399"
             style="fill:#ffffff;fill-opacity:1;fill-rule:evenodd;stroke:none"
             id="path3318" /><path
             d="m 186.586,87.9688 6.855,0 0,-5.8399 -6.855,0 0,5.8399 z"
             style="fill:none;stroke:#ffffff;stroke-opacity:1;stroke-width:2.386;stroke-linecap:square;stroke-linejoin:miter;stroke-miterlimit:10;stroke-dasharray:none"
             id="path3320" /><path
             d="m 172.895,87.9688 6.835,0 0,-5.8399 -6.835,0 0,5.8399"
             style="fill:#ffffff;fill-opacity:1;fill-rule:evenodd;stroke:none"
             id="path3322" /><path
             d="m 172.895,87.9688 6.835,0 0,-5.8399 -6.835,0 0,5.8399 z"
             style="fill:none;stroke:#ffffff;stroke-opacity:1;stroke-width:2.386;stroke-linecap:square;stroke-linejoin:miter;stroke-miterlimit:10;stroke-dasharray:none"
             id="path3324" /><path
             d="m 159.223,87.9688 6.836,0 0,-5.8399 -6.836,0 0,5.8399"
             style="fill:#ffffff;fill-opacity:1;fill-rule:evenodd;stroke:none"
             id="path3326" /><path
             d="m 159.223,87.9688 6.836,0 0,-5.8399 -6.836,0 0,5.8399 z"
             style="fill:none;stroke:#ffffff;stroke-opacity:1;stroke-width:2.386;stroke-linecap:square;stroke-linejoin:miter;stroke-miterlimit:10;stroke-dasharray:none"
             id="path3328" /><path
             d="m 145.531,87.9688 6.848,0 0,-5.8399 -6.848,0 0,5.8399"
             style="fill:#ffffff;fill-opacity:1;fill-rule:evenodd;stroke:none"
             id="path3330" /><path
             d="m 145.531,87.9688 6.848,0 0,-5.8399 -6.848,0 0,5.8399 z"
             style="fill:none;stroke:#ffffff;stroke-opacity:1;stroke-width:2.386;stroke-linecap:square;stroke-linejoin:miter;stroke-miterlimit:10;stroke-dasharray:none"
             id="path3332" /><path
             d="m 132.836,87.9688 5.859,0 0,-5.8399 -5.859,0 0,5.8399"
             style="fill:#ffffff;fill-opacity:1;fill-rule:evenodd;stroke:none"
             id="path3334" /><path
             d="m 132.836,87.9688 5.859,0 0,-5.8399 -5.859,0 0,5.8399 z"
             style="fill:none;stroke:#ffffff;stroke-opacity:1;stroke-width:2.386;stroke-linecap:square;stroke-linejoin:miter;stroke-miterlimit:10;stroke-dasharray:none"
             id="path3336" /><path
             d="m 119.164,87.9688 5.859,0 0.977,-5.8399 -6.836,0 0,5.8399"
             style="fill:#ffffff;fill-opacity:1;fill-rule:evenodd;stroke:none"
             id="path3338" /><path
             d="m 119.164,87.9688 5.859,0 0.977,-5.8399 -6.836,0 0,5.8399 z"
             style="fill:none;stroke:#ffffff;stroke-opacity:1;stroke-width:2.386;stroke-linecap:square;stroke-linejoin:miter;stroke-miterlimit:10;stroke-dasharray:none"
             id="path3340" /><path
             d="m 254.027,33.0469 6.848,0 0,-5.8789 -6.848,0 0,5.8789"
             style="fill:#ffffff;fill-opacity:1;fill-rule:evenodd;stroke:none"
             id="path3342" /><path
             d="m 254.027,33.0469 6.848,0 0,-5.8789 -6.848,0 0,5.8789 z"
             style="fill:none;stroke:#ffffff;stroke-opacity:1;stroke-width:2.386;stroke-linecap:square;stroke-linejoin:miter;stroke-miterlimit:10;stroke-dasharray:none"
             id="path3344" /><path
             d="m 240.355,33.0469 6.836,0 0,-5.8789 -6.836,0 0,5.8789"
             style="fill:#ffffff;fill-opacity:1;fill-rule:evenodd;stroke:none"
             id="path3346" /><path
             d="m 240.355,33.0469 6.836,0 0,-5.8789 -6.836,0 0,5.8789 z"
             style="fill:none;stroke:#ffffff;stroke-opacity:1;stroke-width:2.386;stroke-linecap:square;stroke-linejoin:miter;stroke-miterlimit:10;stroke-dasharray:none"
             id="path3348" /><path
             d="m 226.676,33.0469 6.844,0 0,-5.8789 -6.844,0 0,5.8789"
             style="fill:#ffffff;fill-opacity:1;fill-rule:evenodd;stroke:none"
             id="path3350" /><path
             d="m 226.676,33.0469 6.844,0 0,-5.8789 -6.844,0 0,5.8789 z"
             style="fill:none;stroke:#ffffff;stroke-opacity:1;stroke-width:2.386;stroke-linecap:square;stroke-linejoin:miter;stroke-miterlimit:10;stroke-dasharray:none"
             id="path3352" /><path
             d="m 213.969,33.0469 5.871,0 0,-5.8789 -5.871,0 0,5.8789"
             style="fill:#ffffff;fill-opacity:1;fill-rule:evenodd;stroke:none"
             id="path3354" /><path
             d="m 213.969,33.0469 5.871,0 0,-5.8789 -5.871,0 0,5.8789 z"
             style="fill:none;stroke:#ffffff;stroke-opacity:1;stroke-width:2.386;stroke-linecap:square;stroke-linejoin:miter;stroke-miterlimit:10;stroke-dasharray:none"
             id="path3356" /><path
             d="m 200.289,33.0469 5.867,0 0,-5.8789 -5.867,0 0,5.8789"
             style="fill:#ffffff;fill-opacity:1;fill-rule:evenodd;stroke:none"
             id="path3358" /><path
             d="m 200.289,33.0469 5.867,0 0,-5.8789 -5.867,0 0,5.8789 z"
             style="fill:none;stroke:#ffffff;stroke-opacity:1;stroke-width:2.386;stroke-linecap:square;stroke-linejoin:miter;stroke-miterlimit:10;stroke-dasharray:none"
             id="path3360" /><path
             d="m 186.586,33.0469 6.855,0 0,-5.8789 -6.855,0 0,5.8789"
             style="fill:#ffffff;fill-opacity:1;fill-rule:evenodd;stroke:none"
             id="path3362" /><path
             d="m 186.586,33.0469 6.855,0 0,-5.8789 -6.855,0 0,5.8789 z"
             style="fill:none;stroke:#ffffff;stroke-opacity:1;stroke-width:2.386;stroke-linecap:square;stroke-linejoin:miter;stroke-miterlimit:10;stroke-dasharray:none"
             id="path3364" /><path
             d="m 172.895,33.0469 6.835,0 0,-5.8789 -6.835,0 0,5.8789"
             style="fill:#ffffff;fill-opacity:1;fill-rule:evenodd;stroke:none"
             id="path3366" /><path
             d="m 172.895,33.0469 6.835,0 0,-5.8789 -6.835,0 0,5.8789 z"
             style="fill:none;stroke:#ffffff;stroke-opacity:1;stroke-width:2.386;stroke-linecap:square;stroke-linejoin:miter;stroke-miterlimit:10;stroke-dasharray:none"
             id="path3368" /><path
             d="m 159.223,33.0469 6.836,0 0,-5.8789 -6.836,0 0,5.8789"
             style="fill:#ffffff;fill-opacity:1;fill-rule:evenodd;stroke:none"
             id="path3370" /><path
             d="m 159.223,33.0469 6.836,0 0,-5.8789 -6.836,0 0,5.8789 z"
             style="fill:none;stroke:#ffffff;stroke-opacity:1;stroke-width:2.386;stroke-linecap:square;stroke-linejoin:miter;stroke-miterlimit:10;stroke-dasharray:none"
             id="path3372" /><path
             d="m 145.531,33.0469 6.848,0 0,-5.8789 -6.848,0 0,5.8789"
             style="fill:#ffffff;fill-opacity:1;fill-rule:evenodd;stroke:none"
             id="path3374" /><path
             d="m 145.531,33.0469 6.848,0 0,-5.8789 -6.848,0 0,5.8789 z"
             style="fill:none;stroke:#ffffff;stroke-opacity:1;stroke-width:2.386;stroke-linecap:square;stroke-linejoin:miter;stroke-miterlimit:10;stroke-dasharray:none"
             id="path3376" /><path
             d="m 132.836,33.0469 5.859,0 0,-5.8789 -5.859,0 0,5.8789"
             style="fill:#ffffff;fill-opacity:1;fill-rule:evenodd;stroke:none"
             id="path3378" /><path
             d="m 132.836,33.0469 5.859,0 0,-5.8789 -5.859,0 0,5.8789 z"
             style="fill:none;stroke:#ffffff;stroke-opacity:1;stroke-width:2.386;stroke-linecap:square;stroke-linejoin:miter;stroke-miterlimit:10;stroke-dasharray:none"
             id="path3380" /><path
             d="m 119.164,33.0469 6.836,0 0,-5.8789 -6.836,0 0,5.8789"
             style="fill:#ffffff;fill-opacity:1;fill-rule:evenodd;stroke:none"
             id="path3382" /><path
             d="m 119.164,33.0469 6.836,0 0,-5.8789 -6.836,0 0,5.8789 z"
             style="fill:none;stroke:#ffffff;stroke-opacity:1;stroke-width:2.386;stroke-linecap:square;stroke-linejoin:miter;stroke-miterlimit:10;stroke-dasharray:none"
             id="path3384" /><path
             d="m 195.414,73.2891 22.461,0 0,-31.4024 -22.461,0 0,31.4024"
             style="fill:#ffffff;fill-opacity:1;fill-rule:evenodd;stroke:none"
             id="path3386" /><path
             d="m 195.414,73.2891 22.461,0 0,-31.4024 -22.461,0 0,31.4024 z"
             style="fill:none;stroke:#ffffff;stroke-opacity:1;stroke-width:2.386;stroke-linecap:square;stroke-linejoin:miter;stroke-miterlimit:10;stroke-dasharray:none"
             id="path3388" /><path
             d="m 159.223,73.2891 22.472,0 0,-31.4024 -22.472,0 0,31.4024"
             style="fill:#ffffff;fill-opacity:1;fill-rule:evenodd;stroke:none"
             id="path3390" /><path
             d="m 159.223,73.2891 22.472,0 0,-31.4024 -22.472,0 0,31.4024 z"
             style="fill:none;stroke:#ffffff;stroke-opacity:1;stroke-width:2.386;stroke-linecap:square;stroke-linejoin:miter;stroke-miterlimit:10;stroke-dasharray:none"
             id="path3392" /><path
             d="m 124.047,73.2891 21.484,0 0,-31.4024 -21.484,0 0,31.4024"
             style="fill:#ffffff;fill-opacity:1;fill-rule:evenodd;stroke:none"
             id="path3394" /><path
             d="m 124.047,73.2891 21.484,0 0,-31.4024 -21.484,0 0,31.4024 z"
             style="fill:none;stroke:#ffffff;stroke-opacity:1;stroke-width:2.386;stroke-linecap:square;stroke-linejoin:miter;stroke-miterlimit:10;stroke-dasharray:none"
             id="path3396" /></g></g></g></g></svg>